<svg xmlns="http://www.w3.org/2000/svg" viewBox="0 0 630.55 346.2"><defs><style>.cls-1{fill:#231f20;}</style></defs><g id="Layer_2" data-name="Layer 2"><g id="Layer_1-2" data-name="Layer 1"><path d="M0,254.34H13.2L56,315.69V254.34H71.32v90.6H58.25L15.16,283.59v61.35H0Z"/><path d="M147,310.51a32.91,32.91,0,0,1-.51,6.25H98.3q1.2,7.71,6.16,12.07a18.42,18.42,0,0,0,12.6,4.35,22.3,22.3,0,0,0,9.86-2.17,15.47,15.47,0,0,0,6.7-5.85l11.49,7.33a24.08,24.08,0,0,1-11,10.08,39.14,39.14,0,0,1-17.28,3.63,32.54,32.54,0,0,1-16.55-4.33,31.83,31.83,0,0,1-11.91-12A33.37,33.37,0,0,1,84,313a32.37,32.37,0,0,1,4.33-16.52,31.5,31.5,0,0,1,11.81-11.78,32.44,32.44,0,0,1,16.46-4.3,30.53,30.53,0,0,1,15.38,4,29.19,29.19,0,0,1,11,10.9A29.82,29.82,0,0,1,147,310.51ZM98.81,305.7h33a13.89,13.89,0,0,0-5-9.69,18,18,0,0,0-21.8-.19A18.44,18.44,0,0,0,98.81,305.7Z"/><path d="M204.25,281.7h14.46v63.24H204.25V335a21.85,21.85,0,0,1-7.9,8.34,21.26,21.26,0,0,1-11.12,2.91q-12.25,0-19.27-7.61t-7-20.95V281.7h14.34v34.24q0,7.46,4.23,11.94a14.65,14.65,0,0,0,11.18,4.48A14.83,14.83,0,0,0,200,327.88q4.26-4.49,4.27-11.94Z"/><path d="M264.33,280.37a19.66,19.66,0,0,1,8,1.45l-1.64,14a19.35,19.35,0,0,0-7.77-1.58,14.1,14.1,0,0,0-10.27,4.54q-4.51,4.56-4.52,12.39v33.8H233.81V281.7h14.34v9a17.38,17.38,0,0,1,6.76-7.42A17.56,17.56,0,0,1,264.33,280.37Z"/><path d="M283.72,289.85a33.48,33.48,0,0,1,46.69,0q9.46,9.47,9.47,23.5t-9.47,23.44a33.66,33.66,0,0,1-46.69,0q-9.42-9.42-9.41-23.44T283.72,289.85Zm36.58,9.85A17.82,17.82,0,0,0,307,294.21a17.62,17.62,0,0,0-13.2,5.49,18.88,18.88,0,0,0-5.31,13.65,18.62,18.62,0,0,0,5.34,13.55,18.7,18.7,0,0,0,26.44,0,19.87,19.87,0,0,0,0-27.17Z"/><path d="M374.25,254.34h16.17l24.33,66.4,24.32-66.4h16.05l-34.18,90.6H408.37Z"/><path d="M462.57,255a8.88,8.88,0,0,1,6.51-2.72,9,9,0,0,1,6.54,2.72,8.75,8.75,0,0,1,2.74,6.44,8.9,8.9,0,0,1-2.74,6.57,9,9,0,0,1-6.54,2.72A9.2,9.2,0,0,1,462.57,255Zm-.76,26.66h14.34v63.24H461.81Z"/><path d="M528.08,331.61l.82,12.69a17.6,17.6,0,0,1-7.77,1.52q-10.67,0-17.24-6.54t-6.57-18V295.41H485.19V281.7h12.13v-17h14.34v17h16.61v13.71H511.66v25.2a11.14,11.14,0,0,0,11.56,11.75A17,17,0,0,0,528.08,331.61Z"/><path d="M586.46,281.7H601v63.24H586.46V333.82A24.2,24.2,0,0,1,577.3,343a26.6,26.6,0,0,1-13.21,3.19,27.89,27.89,0,0,1-15.22-4.39,31.25,31.25,0,0,1-11-12,36,36,0,0,1,0-33.14,31.07,31.07,0,0,1,11-11.94,28,28,0,0,1,15.22-4.36,26.3,26.3,0,0,1,13.21,3.22,24.45,24.45,0,0,1,9.16,9.23Zm-19.27,50.79a18.89,18.89,0,0,0,19.27-19.27,18.44,18.44,0,0,0-5.53-13.64,19.68,19.68,0,0,0-27.39.09,18.39,18.39,0,0,0-5.62,13.55,19.09,19.09,0,0,0,19.27,19.27Z"/><path d="M630.55,254.34v90.6H616.21v-90.6Z"/><path class="cls-1" d="M489.54,23.07C488,3.92,473.69-4.79,456,2.64c-6.75,2.83-12.7,7-18.37,11.53C418.23,29.75,402,48.48,385.48,67c-25.83,28.93-50.6,58.84-78.92,85.47a257.74,257.74,0,0,1-21.3,17.72c-21.26,16.05-43.22,15-64.56,1.31-31.53-20.23-49.71-50.25-59.23-85.9-1.74-6.53-2.64-13.29-1.16-20.1,1.41-6.47,5.31-8.4,11.2-5.36,5,2.6,9.19,6.42,13.31,10.22,17.2,15.81,32,33.76,46.29,52.17,8.49,11,16.55,22.24,24.93,33.28,3.62,4.77,9.19,5.56,13.49,2.3s5-8.72,1.61-13.65c-.93-1.37-1.92-2.69-2.9-4-20.68-28.24-41.63-56.27-67-80.59-7.28-7-15.08-13.38-24.37-17.6-14.76-6.69-29.53,0-34.17,15.48a51.64,51.64,0,0,0-1.59,20.59c1.56,14.61,6.08,28.33,12.32,41.53,12.58,26.56,29.62,49.57,54.4,66C226.05,197.92,246,203.76,268,199.1c13.58-2.88,24.71-10.79,35.34-19.22,26.13-20.74,48-45.76,70.07-70.53,21.31-23.9,42-48.41,64.68-71,6.55-6.52,13.19-13,21.08-17.93,7.62-4.77,11.24-2.79,11.65,6.15s-1.72,17.71-4.7,26.14c-12.28,34.83-32.21,65-57.79,91.27-23.78,24.45-50.32,44.37-86.43,46.17-4.51.22-7.69,4.38-7.71,8.94s2.41,7.7,6.8,9.2c2.77.95,5.57.4,8.35.17,23.79-2,44.57-11.75,63.36-25.72C431.19,154.11,459,116.9,478.46,73.3c6.27-14.06,11-28.66,11.38-44.25C489.74,27,489.71,25,489.54,23.07Z"/><path class="cls-1" d="M297.86,112a43.71,43.71,0,0,0,.66-87.42c-24.67-.08-44.17,19.18-44.2,43.65A43.46,43.46,0,0,0,297.86,112Zm.36-68.46a24.77,24.77,0,1,1-24.94,24.75A24.77,24.77,0,0,1,298.22,43.51Z"/></g></g></svg>